<?xml version="1.0" standalone="no"?>
<!DOCTYPE svg PUBLIC "-//W3C//DTD SVG 20010904//EN"
 "http://www.w3.org/TR/2001/REC-SVG-20010904/DTD/svg10.dtd">
<svg version="1.0" xmlns="http://www.w3.org/2000/svg"
width="1490.000000pt" height="350.000000pt" viewBox="216 190 1490 350"
 preserveAspectRatio="xMidYMid meet">
<metadata>
Created by potrace 1.16, written by Peter Selinger 2001-2019
</metadata>
<g transform="translate(0.000000,724.000000) scale(0.100000,-0.100000)"
fill="#000000" stroke="none">
<path d="M11048 5013 c6 -2 18 -2 25 0 6 3 1 5 -13 5 -14 0 -19 -2 -12 -5z"/>
<path d="M10986 4995 c-11 -8 -16 -15 -10 -15 5 0 18 7 28 15 11 8 16 15 10
15 -5 0 -18 -7 -28 -15z"/>
<path d="M10690 4996 c0 -2 7 -9 15 -16 9 -7 15 -8 15 -2 0 5 -7 12 -15 16 -8
3 -15 4 -15 2z"/>
<path d="M10330 4604 c0 -4 71 -44 77 -44 4 0 -4 11 -16 24 -13 14 -32 24 -42
23 -10 -1 -19 -2 -19 -3z"/>
<path d="M11347 4603 c-4 -3 -7 -11 -7 -17 0 -6 5 -5 12 2 6 6 9 14 7 17 -3 3
-9 2 -12 -2z"/>
<path d="M11244 4588 c-3 -4 -12 -5 -22 -2 -12 4 -13 3 -5 -3 7 -5 10 -21 8
-38 l-5 -30 24 27 c13 15 26 25 29 22 2 -3 7 4 10 15 4 15 0 19 -15 18 -11 -1
-22 -5 -24 -9z m6 -18 c-6 -11 -13 -20 -16 -20 -2 0 0 9 6 20 6 11 13 20 16
20 2 0 0 -9 -6 -20z"/>
<path d="M10465 4560 c3 -5 10 -10 16 -10 5 0 9 5 9 10 0 6 -7 10 -16 10 -8 0
-12 -4 -9 -10z"/>
<path d="M11310 4535 c-13 -14 -32 -25 -42 -25 -10 0 -18 -4 -18 -10 0 -13 1
-13 46 8 22 9 40 25 42 35 4 23 0 22 -28 -8z"/>
<path d="M10412 4520 c17 -22 29 -28 46 -25 13 3 22 1 22 -6 0 -7 3 -9 6 -6 8
8 -14 37 -28 37 -5 0 -6 -6 -2 -12 4 -7 -5 -1 -21 15 -37 36 -52 35 -23 -3z"/>
<path d="M10480 4526 c0 -2 7 -7 16 -10 8 -3 12 -2 9 4 -6 10 -25 14 -25 6z"/>
<path d="M10439 4413 c-13 -15 -12 -15 11 -3 34 17 36 20 18 20 -9 0 -22 -7
-29 -17z"/>
<path d="M11260 4410 c0 -5 5 -10 11 -10 5 0 7 5 4 10 -3 6 -8 10 -11 10 -2 0
-4 -4 -4 -10z"/>
<path d="M5556 4365 c-3 -9 -6 -22 -5 -28 0 -7 5 -1 10 12 5 13 8 26 5 28 -2
2 -6 -3 -10 -12z"/>
<path d="M10435 4359 c-11 -17 1 -21 15 -4 8 9 8 15 2 15 -6 0 -14 -5 -17 -11z"/>
<path d="M10816 4195 c4 -8 8 -15 10 -15 2 0 4 7 4 15 0 8 -4 15 -10 15 -5 0
-7 -7 -4 -15z"/>
<path d="M7820 4116 c0 -2 7 -6 15 -10 8 -3 15 -1 15 4 0 6 -7 10 -15 10 -8 0
-15 -2 -15 -4z"/>
<path d="M7773 4103 c9 -2 23 -2 30 0 6 3 -1 5 -18 5 -16 0 -22 -2 -12 -5z"/>
<path d="M10416 4063 c-6 -14 -5 -15 5 -6 7 7 10 15 7 18 -3 3 -9 -2 -12 -12z"/>
<path d="M5835 4061 c-6 -11 9 -23 19 -14 9 9 7 23 -3 23 -6 0 -12 -4 -16 -9z"/>
<path d="M7330 4025 c0 -9 6 -12 15 -9 8 4 15 7 15 9 0 2 -7 5 -15 9 -9 3 -15
0 -15 -9z"/>
<path d="M7226 4011 c-3 -4 6 -6 19 -3 14 2 25 6 25 8 0 8 -39 4 -44 -5z"/>
<path d="M10460 4003 c8 -3 24 -10 35 -16 18 -9 19 -9 6 6 -7 10 -23 17 -35
16 -14 0 -16 -2 -6 -6z"/>
<path d="M7078 3923 c7 -3 16 -2 19 1 4 3 -2 6 -13 5 -11 0 -14 -3 -6 -6z"/>
<path d="M11135 3910 c3 -5 8 -10 11 -10 2 0 4 5 4 10 0 6 -5 10 -11 10 -5 0
-7 -4 -4 -10z"/>
<path d="M7091 3888 c17 -34 19 -34 19 -5 0 18 -5 27 -15 27 -13 0 -14 -4 -4
-22z"/>
<path d="M10476 3835 c4 -8 11 -15 16 -15 6 0 5 6 -2 15 -7 8 -14 15 -16 15
-2 0 -1 -7 2 -15z"/>
<path d="M6921 3804 c0 -11 3 -14 6 -6 3 7 2 16 -1 19 -3 4 -6 -2 -5 -13z"/>
<path d="M10945 3800 c-3 -5 -1 -10 4 -10 6 0 11 5 11 10 0 6 -2 10 -4 10 -3
0 -8 -4 -11 -10z"/>
<path d="M10864 3758 c3 -21 16 -38 29 -37 9 0 8 2 -1 6 -6 2 -10 8 -7 13 3 4
-2 13 -9 19 -11 9 -14 9 -12 -1z"/>
<path d="M13768 3763 c7 -3 16 -2 19 1 4 3 -2 6 -13 5 -11 0 -14 -3 -6 -6z"/>
<path d="M15338 3763 c7 -3 16 -2 19 1 4 3 -2 6 -13 5 -11 0 -14 -3 -6 -6z"/>
<path d="M9037 3743 c-11 -10 -8 -43 4 -43 5 0 7 5 4 10 -6 9 8 15 29 11 5 -1
4 5 -4 13 -14 17 -23 20 -33 9z"/>
<path d="M10826 3734 c-4 -9 -4 -19 -1 -22 3 -3 5 0 5 7 0 7 4 10 8 7 5 -3 9
1 9 9 0 20 -13 19 -21 -1z"/>
<path d="M10836 3702 c-3 -5 1 -9 9 -9 8 0 12 4 9 9 -3 4 -7 8 -9 8 -2 0 -6
-4 -9 -8z"/>
<path d="M10532 3674 c10 -10 20 -15 24 -12 3 4 -5 12 -18 18 -22 12 -22 12
-6 -6z"/>
<path d="M12401 3675 c-1 -12 5 -27 12 -34 10 -11 9 -12 -2 -6 -9 5 -12 3 -9
-6 3 -8 2 -21 -3 -30 -5 -11 -3 -16 6 -16 8 0 12 4 8 9 -3 5 4 16 16 24 25 18
28 43 4 40 -11 -2 -21 5 -25 18 -6 21 -6 21 -7 1z"/>
<path d="M7952 3665 c15 -16 20 -17 30 -6 11 11 10 13 0 7 -7 -4 -21 -2 -30 5
-15 12 -15 11 0 -6z"/>
<path d="M8261 3644 c0 -11 3 -14 6 -6 3 7 2 16 -1 19 -3 4 -6 -2 -5 -13z"/>
<path d="M9281 3651 c-9 -6 -10 -11 -2 -15 6 -4 11 -1 12 6 0 7 4 4 9 -7 7
-16 9 -17 9 -3 1 21 -11 29 -28 19z"/>
<path d="M10260 3628 c0 -23 3 -29 9 -19 8 12 4 51 -5 51 -2 0 -4 -15 -4 -32z"/>
<path d="M8004 3639 c-3 -6 0 -15 7 -20 23 -14 30 -10 19 11 -12 23 -16 24
-26 9z"/>
<path d="M10286 3638 c3 -4 9 -8 15 -8 5 0 9 4 9 8 0 5 -7 9 -15 9 -8 0 -12
-4 -9 -9z"/>
<path d="M9018 3583 c7 -3 16 -2 19 1 4 3 -2 6 -13 5 -11 0 -14 -3 -6 -6z"/>
<path d="M10715 3550 c-3 -5 -1 -10 4 -10 6 0 11 5 11 10 0 6 -2 10 -4 10 -3
0 -8 -4 -11 -10z"/>
<path d="M5070 3493 c0 -43 5 -41 13 5 4 18 2 32 -3 32 -6 0 -10 -16 -10 -37z"/>
<path d="M5100 3505 c0 -8 4 -15 10 -15 5 0 7 7 4 15 -4 8 -8 15 -10 15 -2 0
-4 -7 -4 -15z"/>
<path d="M8050 3490 c0 -5 7 -7 15 -4 8 4 15 8 15 10 0 2 -7 4 -15 4 -8 0 -15
-4 -15 -10z"/>
<path d="M2363 3473 c9 -2 23 -2 30 0 6 3 -1 5 -18 5 -16 0 -22 -2 -12 -5z"/>
<path d="M5110 3469 c0 -5 5 -7 10 -4 6 3 10 8 10 11 0 2 -4 4 -10 4 -5 0 -10
-5 -10 -11z"/>
<path d="M5091 3454 c0 -11 3 -14 6 -6 3 7 2 16 -1 19 -3 4 -6 -2 -5 -13z"/>
<path d="M8047 3456 c-6 -16 2 -28 14 -20 12 7 11 34 0 34 -5 0 -11 -6 -14
-14z"/>
<path d="M7320 3441 c0 -6 5 -13 10 -16 6 -3 10 1 10 9 0 9 -4 16 -10 16 -5 0
-10 -4 -10 -9z"/>
<path d="M7755 3400 c-4 -6 -3 -10 2 -9 21 4 34 -2 27 -13 -4 -7 -3 -8 4 -4
16 10 15 14 -7 26 -14 7 -22 7 -26 0z"/>
<path d="M2435 3360 c-13 -5 -14 -9 -5 -9 8 0 24 4 35 9 13 5 14 9 5 9 -8 0
-24 -4 -35 -9z"/>
<path d="M14708 3363 c7 -3 16 -2 19 1 4 3 -2 6 -13 5 -11 0 -14 -3 -6 -6z"/>
<path d="M7852 3344 c10 -10 20 -16 22 -13 3 3 -5 11 -17 18 -21 13 -21 12 -5
-5z"/>
<path d="M2460 3339 c-19 -5 -14 -7 23 -8 26 -1 47 1 47 3 0 8 -46 12 -70 5z"/>
<path d="M14455 3331 c-23 -10 -53 -32 -67 -49 -28 -34 -52 -95 -45 -115 2 -6
10 7 16 30 23 84 108 149 182 140 22 -2 39 0 39 4 0 16 -84 9 -125 -10z"/>
<path d="M8450 3265 c0 -5 9 -23 20 -40 11 -16 20 -25 20 -20 0 6 -9 24 -20
40 -11 17 -20 26 -20 20z"/>
<path d="M10764 3254 c-18 -14 -18 -15 4 -4 12 6 22 13 22 15 0 8 -5 6 -26
-11z"/>
<path d="M10822 3244 c-7 -8 -10 -19 -7 -24 11 -17 20 -11 21 15 1 14 1 25 0
25 0 -1 -7 -7 -14 -16z"/>
<path d="M10890 3245 c-10 -12 -10 -19 -1 -28 9 -9 14 -9 21 3 6 9 6 16 0 18
-6 2 -8 8 -4 13 9 15 -2 10 -16 -6z"/>
<path d="M16860 3254 c0 -5 9 -17 20 -27 11 -9 20 -13 20 -8 0 4 -9 16 -20 26
-11 10 -20 14 -20 9z"/>
<path d="M10740 3219 c0 -5 5 -7 10 -4 6 3 10 8 10 11 0 2 -4 4 -10 4 -5 0
-10 -5 -10 -11z"/>
<path d="M11065 3220 c-11 -18 3 -24 21 -10 13 12 17 11 26 -1 8 -12 9 -12 5
1 -4 18 -42 25 -52 10z"/>
<path d="M10705 3201 c-2 -5 1 -14 9 -20 10 -9 15 -8 19 3 6 15 -19 31 -28 17z"/>
<path d="M16826 3185 c4 -8 11 -15 16 -15 6 0 5 6 -2 15 -7 8 -14 15 -16 15
-2 0 -1 -7 2 -15z"/>
<path d="M14571 3178 c-1 -12 6 -18 19 -18 11 0 20 5 20 11 0 6 -6 9 -14 6 -8
-3 -17 -1 -20 6 -2 7 -5 4 -5 -5z"/>
<path d="M16747 3176 c-4 -10 -1 -13 8 -9 8 3 12 9 9 14 -7 12 -11 11 -17 -5z"/>
<path d="M14531 3171 c-8 -6 -9 -11 -3 -15 6 -3 14 -1 17 5 9 14 2 20 -14 10z"/>
<path d="M14605 3150 c-3 -5 3 -10 14 -10 12 0 21 5 21 10 0 6 -6 10 -14 10
-8 0 -18 -4 -21 -10z"/>
<path d="M10832 3138 c5 -15 28 -23 28 -10 0 5 -7 13 -16 16 -10 4 -14 1 -12
-6z"/>
<path d="M14521 3127 c-6 -8 -6 -18 -1 -27 8 -12 10 -11 10 5 0 11 4 16 8 10
9 -12 32 -18 32 -7 0 4 -9 13 -19 19 -15 9 -22 9 -30 0z"/>
<path d="M8505 3120 c-11 -19 23 -79 44 -77 12 1 17 6 13 16 -3 9 -1 12 6 7
19 -11 14 -26 -10 -36 l-23 -9 23 0 c12 -1 25 6 28 14 8 19 -13 45 -35 45 -9
0 -23 5 -31 10 -12 8 -13 11 -1 19 8 5 9 11 3 15 -6 3 -14 2 -17 -4z m45 -60
c0 -5 -5 -10 -11 -10 -5 0 -7 5 -4 10 3 6 8 10 11 10 2 0 4 -4 4 -10z"/>
<path d="M16750 3119 c0 -5 -5 -7 -12 -3 -8 5 -9 2 -5 -9 7 -19 -20 -37 -42
-29 -8 3 -11 0 -7 -7 4 -6 20 -11 36 -11 22 0 33 7 44 29 15 27 12 41 -6 41
-4 0 -8 -5 -8 -11z"/>
<path d="M8455 3100 c3 -5 13 -10 21 -10 8 0 12 5 9 10 -3 6 -13 10 -21 10 -8
0 -12 -4 -9 -10z"/>
<path d="M6960 3091 c0 -6 4 -12 8 -15 5 -3 9 1 9 9 0 8 -4 15 -9 15 -4 0 -8
-4 -8 -9z"/>
<path d="M14546 3081 c-4 -7 -5 -15 -2 -18 9 -9 19 4 14 18 -4 11 -6 11 -12 0z"/>
<path d="M16775 3080 c3 -5 8 -10 11 -10 2 0 4 5 4 10 0 6 -5 10 -11 10 -5 0
-7 -4 -4 -10z"/>
<path d="M16805 3060 c-3 -6 1 -7 9 -4 18 7 21 14 7 14 -6 0 -13 -4 -16 -10z"/>
<path d="M8417 3043 c-13 -12 -7 -23 11 -22 10 0 12 3 4 6 -6 2 -10 9 -6 14 6
10 0 12 -9 2z"/>
<path d="M10900 3025 c-1 -11 -4 -33 -6 -48 l-3 -28 19 23 c10 13 15 25 10 28
-4 3 -10 14 -13 25 l-5 20 -2 -20z"/>
<path d="M8370 3026 c0 -2 7 -7 16 -10 8 -3 12 -2 9 4 -6 10 -25 14 -25 6z"/>
<path d="M10507 3000 c-4 -15 -2 -27 6 -32 19 -12 31 -9 19 5 -5 6 -12 21 -14
32 -3 18 -5 17 -11 -5z"/>
<path d="M10816 3007 c3 -10 9 -15 12 -12 3 3 0 11 -7 18 -10 9 -11 8 -5 -6z"/>
<path d="M13120 2995 c-8 -9 -8 -15 -2 -15 12 0 26 19 19 26 -2 2 -10 -2 -17
-11z"/>
<path d="M8420 2990 c8 -5 20 -10 25 -10 6 0 3 5 -5 10 -8 5 -19 10 -25 10 -5
0 -3 -5 5 -10z"/>
<path d="M13098 2963 c6 -2 18 -2 25 0 6 3 1 5 -13 5 -14 0 -19 -2 -12 -5z"/>
<path d="M7738 2953 c7 -3 16 -2 19 1 4 3 -2 6 -13 5 -11 0 -14 -3 -6 -6z"/>
<path d="M8400 2910 l-25 -8 25 0 c14 0 34 3 45 8 l20 9 -20 -1 c-11 0 -31 -4
-45 -8z"/>
<path d="M8490 2898 c-25 -5 -115 -24 -200 -43 -85 -19 -166 -36 -180 -38 -20
-4 -19 -5 8 -6 17 0 32 -6 32 -12 0 -6 -7 -8 -16 -5 -8 3 -12 2 -9 -4 3 -5
-11 -14 -32 -19 -67 -17 -196 -48 -255 -60 -32 -7 -60 -16 -63 -20 -5 -8 38
-4 65 6 8 4 33 8 55 10 22 1 62 9 90 17 89 25 122 28 122 12 0 -9 -19 -19 -51
-27 l-51 -12 29 -12 29 -12 -36 -12 c-21 -7 -35 -16 -32 -21 3 -4 -5 -6 -16
-3 -16 4 -20 2 -17 -8 3 -8 17 -13 32 -12 14 1 24 -2 21 -8 -4 -5 -16 -9 -28
-9 -20 -1 -21 -1 -4 -11 10 -6 27 -9 38 -6 10 3 19 1 19 -4 0 -11 76 -4 115
11 14 5 24 14 21 19 -7 10 -7 10 189 49 241 48 255 54 240 102 -3 10 -1 39 5
66 10 45 9 49 -12 66 -25 19 -42 20 -108 6z m-3 -54 c-3 -3 -12 -4 -19 -1 -8
3 -5 6 6 6 11 1 17 -2 13 -5z m-280 -30 c-3 -3 -12 -4 -19 -1 -8 3 -5 6 6 6
11 1 17 -2 13 -5z m160 -85 c-36 -20 -18 -31 41 -25 42 5 53 4 40 -4 -10 -6
-48 -13 -85 -17 l-68 -6 19 22 c19 21 19 21 -3 21 -41 0 -13 15 30 17 33 1 39
-1 26 -8z m203 1 c-8 -5 -24 -9 -35 -9 -16 1 -16 2 5 9 35 11 48 11 30 0z
m-503 -36 c-3 -3 -12 -4 -19 -1 -8 3 -5 6 6 6 11 1 17 -2 13 -5z"/>
<path d="M7606 2870 c20 -33 26 -34 18 -3 -3 12 -12 24 -20 27 -12 5 -11 0 2
-24z"/>
<path d="M8348 2893 c7 -3 16 -2 19 1 4 3 -2 6 -13 5 -11 0 -14 -3 -6 -6z"/>
<path d="M7848 2873 c7 -3 16 -2 19 1 4 3 -2 6 -13 5 -11 0 -14 -3 -6 -6z"/>
<path d="M8048 2803 c6 -2 18 -2 25 0 6 3 1 5 -13 5 -14 0 -19 -2 -12 -5z"/>
<path d="M8008 2793 c7 -3 16 -2 19 1 4 3 -2 6 -13 5 -11 0 -14 -3 -6 -6z"/>
<path d="M7483 2764 c0 -23 1 -24 9 -10 7 12 7 21 0 28 -6 6 -9 0 -9 -18z"/>
<path d="M7958 2783 c7 -3 16 -2 19 1 4 3 -2 6 -13 5 -11 0 -14 -3 -6 -6z"/>
<path d="M7660 2772 c0 -12 19 -26 26 -19 2 2 -2 10 -11 17 -9 8 -15 8 -15 2z"/>
<path d="M10775 2760 c3 -5 11 -10 16 -10 6 0 7 5 4 10 -3 6 -11 10 -16 10 -6
0 -7 -4 -4 -10z"/>
<path d="M8637 2733 c-10 -10 -8 -23 4 -23 5 0 8 4 5 9 -4 5 0 12 6 14 7 3 8
6 2 6 -6 1 -14 -2 -17 -6z"/>
<path d="M10737 2723 c3 -7 6 -13 8 -13 2 0 5 6 8 13 3 8 -1 14 -8 14 -7 0
-11 -6 -8 -14z"/>
<path d="M7980 2680 c0 -5 10 -10 23 -10 18 0 19 2 7 10 -19 13 -30 13 -30 0z"/>
<path d="M7940 2670 c0 -5 7 -10 15 -10 8 0 15 5 15 10 0 6 -7 10 -15 10 -8 0
-15 -4 -15 -10z"/>
<path d="M7870 2640 c1 -8 8 -26 16 -40 l15 -25 -6 30 c-7 33 -25 59 -25 35z"/>
<path d="M7789 2591 c15 -28 38 -100 46 -146 5 -30 9 -36 16 -23 11 20 -22
150 -44 172 -21 22 -30 20 -18 -3z"/>
<path d="M7906 2520 c5 -48 36 -140 47 -140 2 0 3 15 3 34 -1 19 -5 32 -10 28
-5 -3 -6 9 -3 29 5 24 4 30 -3 19 -8 -12 -10 -12 -10 5 -1 11 -7 34 -15 50
-14 29 -15 28 -9 -25z"/>
<path d="M10870 1939 c0 -5 5 -7 10 -4 6 3 10 8 10 11 0 2 -4 4 -10 4 -5 0
-10 -5 -10 -11z"/>
</g>
</svg>
