<?xml version="1.0" encoding="UTF-8"?>
<!-- ĀSĘŁę§÷(Ż«ŻōŻ&Ż!ŽŁů’ĮŪ¶űŅ‚ŃŁ’jW	*w– ŁQ -->
<svg xmlns="http://www.w3.org/2000/svg" viewBox="0 0 960 120" fill="none" aria-hidden="true">
  <defs>
    <linearGradient id="serpentStroke" x1="0%" y1="50%" x2="100%" y2="50%">
      <stop offset="0%" stop-color="#1e4d3a" stop-opacity="0.35"/>
      <stop offset="45%" stop-color="#4dff9a" stop-opacity="0.95"/>
      <stop offset="55%" stop-color="#7cff6b" stop-opacity="0.85"/>
      <stop offset="100%" stop-color="#1e4d3a" stop-opacity="0.35"/>
    </linearGradient>
    <linearGradient id="vineFade" x1="0%" y1="0%" x2="100%" y2="0%">
      <stop offset="0%" stop-color="#4dff9a" stop-opacity="0"/>
      <stop offset="30%" stop-color="#4dff9a" stop-opacity="0.55"/>
      <stop offset="70%" stop-color="#4dff9a" stop-opacity="0.55"/>
      <stop offset="100%" stop-color="#4dff9a" stop-opacity="0"/>
    </linearGradient>
    <filter id="softGlow" x="-20%" y="-20%" width="140%" height="140%">
      <feGaussianBlur stdDeviation="2.2" result="b"/>
      <feMerge>
        <feMergeNode in="b"/>
        <feMergeNode in="SourceGraphic"/>
      </feMerge>
    </filter>
  </defs>

  <!-- ķĖÝ{|	 -->
  <path d="M40 60 H920" stroke="url(#vineFade)" stroke-width="1.2"/>

  <!-- śōdM& -->
  <g opacity="0.88" filter="url(#softGlow)">
    <path d="M120 60 Q90 42 72 58 Q58 72 48 52" stroke="#3ecf84" stroke-width="1.4" stroke-linecap="round" fill="none"/>
    <path d="M108 52 L102 44 M96 58 L88 48 M84 64 L76 54" stroke="#4dff9a" stroke-width="0.9" stroke-linecap="round"/>
    <path d="M180 60 Q150 38 128 56 Q112 68 96 60" stroke="#2d8f62" stroke-width="1" fill="none"/>
  </g>

  <!-- ŽŁů®Üįputnó:	 -->
  <circle cx="480" cy="60" r="38" stroke="#4dff9a" stroke-opacity="0.28" stroke-width="1"/>
  <circle cx="480" cy="60" r="28" stroke="#7cff6b" stroke-opacity="0.22" stroke-width="0.8" stroke-dasharray="4 7"/>

  <!-- -.ÜįíŠč«¶Ū‹ŪĻ!e	 -->
  <g filter="url(#softGlow)">
    <path
      d="M420 60 C420 38 452 28 480 28 C518 28 548 48 548 72 C548 92 518 104 488 100 C458 96 436 78 432 56 C428 44 438 36 452 34"
      stroke="url(#serpentStroke)"
      stroke-width="2.4"
      stroke-linecap="round"
      fill="none"
    />
    <ellipse cx="438" cy="52" rx="5" ry="3.5" fill="#4dff9a" fill-opacity="0.55"/>
    <path d="M428 54 Q422 58 426 62" stroke="#7cff6b" stroke-width="1.2" stroke-linecap="round"/>
  </g>

  <!-- ůōdM&śůĢū	 -->
  <g opacity="0.88" filter="url(#softGlow)">
    <path d="M840 60 Q870 42 888 58 Q902 72 912 52" stroke="#3ecf84" stroke-width="1.4" stroke-linecap="round" fill="none"/>
    <path d="M852 52 L858 44 M864 58 L872 48 M876 64 L884 54" stroke="#4dff9a" stroke-width="0.9" stroke-linecap="round"/>
    <path d="M780 60 Q810 38 832 56 Q848 68 864 60" stroke="#2d8f62" stroke-width="1" fill="none"/>
  </g>

  <!-- ÔnŽŁů; -->
  <g stroke="#4dff9a" stroke-opacity="0.35" stroke-width="0.9" stroke-linecap="round">
    <path d="M32 56 L40 64 L32 72"/>
    <path d="M928 56 L920 64 L928 72"/>
  </g>
</svg>
